# xmcd
#
# Track frame offsets:
#	150
#	19043
#	37680
#	58314
#	73692
#	87696
#	117818
#	132872
#	155157
#	171203
#	191666
#
# Disc length: 2767 seconds
#
# Revision: 0
# Processed by: cddbd v1.5.2PL0 Copyright (c) Steve Scherf et al.
# Submitted via: dBpowerAMP V4.0
#
DISCID=980acd0b
DTITLE=Johnny Mastro and Mama's Boys - The Black Album
DYEAR=2006
DGENRE=Blues
TTITLE0=Slave
TTITLE1=Loverman
TTITLE2=Cry For Me
TTITLE3=Middle of the Night
TTITLE4=Think Twice Before You Go
TTITLE5=Can't Kick the Habit
TTITLE6=Sleeping in the Ground
TTITLE7=Flat Down On My Back
TTITLE8=Charlot
TTITLE9=Done Somebody Wrong
TTITLE10=Billy Boy
EXTD=
EXTT0=
EXTT1=
EXTT2=
EXTT3=
EXTT4=
EXTT5=
EXTT6=
EXTT7=
EXTT8=
EXTT9=
EXTT10=
PLAYORDER=
